Description

Poster: http://cdn.piczend.com/image/mwkqbjrxocxn1rptfyromz2gc.jpeg
Release date: 2013
Genre: Action, Fantasy, Horror
Plot: In this spin on the fairy tale, Hansel & Gretel are now bounty hunters who track and kill witches all over the world. As the fabled Blood Moon approaches, the siblings encounter a new form of evil that might hold a secret to their past.
--------------------------------

Runtime: N/A
Rating: 6.2/10
Votes: 1,400
Writer(s)/Director(s): Tommy Wirkola, Dante Harper/Tommy Wirkola
Actors: Jeremy Renner, Gemma Arterton, Peter Stormare, Famke Janssen
Trailer: http://www.imdb.com/video/imdb/vi1709876249/

Screenshots:
 
http://cdn.piczend.com/image/m6oafcaa7v3q3kzpibziiysea.jpeg
 
http://cdn.piczend.com/image/r0hmeyyady5gzwekqke09uzbt.jpeg
 
http://cdn.piczend.com/image/8jirniyepl8eay7yuexq887id.jpeg
 
http://cdn.piczend.com/image/xixnkhmtp37nsb33zx3yvsjzg.jpeg


Mediainfo:
General
Complete name : 	Hansel & Gretel: Witch Hunters (2013) CAM 340p [Zend]/Hansel & Gretel: Witch Hunters (2013) CAM 340p [Zend].mp4
Format : 	MPEG-4
Format profile : 	Base Media
Codec ID : 	isom
File size : 	939 MiB
Duration : 	1h 20mn
Overall bit rate : 	1 636 Kbps
Writing application : 	Lavf53.21.1

Video
ID : 	1
Format : 	AVC
Format/Info : 	Advanced Video Codec
Format profile : 	Main@L3.0
Format settings, CABAC : 	Yes
Format settings, ReFrames : 	3 frames
Codec ID : 	avc1
Codec ID/Info : 	Advanced Video Coding
Duration : 	1h 20mn
Bit rate : 	1 500 Kbps
Width : 	720 pixels
Height : 	340 pixels
Display aspect ratio : 	2.118
Frame rate mode : 	Constant
Frame rate : 	29.970 fps
Color space : 	YUV
Chroma subsampling : 	4:2:0
Bit depth : 	8 bits
Scan type : 	Progressive
Bits/(Pixel*Frame) : 	0.204
Stream size : 	862 MiB (92%)
Writing library : 	x264 core 123 r2189 35cf912
Encoding settings : 	cabac=1 / ref=3 / deblock=1:0:0 / analyse=0x1:0x111 / me=hex / subme=7 / psy=1 / psy_rd=1.00:0.00 / mixed_ref=0 / me_range=16 / chroma_me=1 / trellis=1 / 8x8dct=0 / cqm=0 / deadzone=21,11 / fast_pskip=1 / chroma_qp_offset=-2 / threads=6 / sliced_threads=0 / nr=0 / decimate=1 / interlaced=0 / bluray_compat=0 / constrained_intra=0 / bframes=3 / b_pyramid=0 / b_adapt=1 / b_bias=0 / direct=1 / weightb=0 / open_gop=1 / weightp=2 / keyint=250 / keyint_min=25 / scenecut=40 / intra_refresh=0 / rc_lookahead=40 / rc=abr / mbtree=1 / bitrate=1500 / ratetol=1.0 / qcomp=0.60 / qpmin=0 / qpmax=69 / qpstep=4 / ip_ratio=1.25 / aq=1:1.00

Audio
ID : 	2
Format : 	MPEG Audio
Format version : 	Version 1
Format profile : 	Layer 3
Mode : 	Joint stereo
Mode extension : 	MS Stereo
Codec ID : 	6B
Duration : 	1h 20mn
Bit rate mode : 	Constant
Bit rate : 	128 Kbps
Channel(s) : 	2 channels
Sampling rate : 	44.1 KHz
Compression mode : 	Lossy
Delay relative to video : 	33ms
Stream size : 	73.4 MiB (8%)
Writing library : 	LAME3.99.5
